<?xml version="1.0" encoding="UTF-8" standalone="no"?>
<!-- Created with Inkscape (http://www.inkscape.org/) -->

<svg
   xmlns:dc="http://purl.org/dc/elements/1.1/"
   xmlns:cc="http://creativecommons.org/ns#"
   xmlns:rdf="http://www.w3.org/1999/02/22-rdf-syntax-ns#"
   xmlns:svg="http://www.w3.org/2000/svg"
   xmlns="http://www.w3.org/2000/svg"
   xmlns:sodipodi="http://sodipodi.sourceforge.net/DTD/sodipodi-0.dtd"
   xmlns:inkscape="http://www.inkscape.org/namespaces/inkscape"
   width="512"
   height="128"
   id="svg2"
   version="1.1"
   inkscape:version="0.48.4 r9939"
   inkscape:export-filename="C:\Users\Ted\Documents\Programming\Android\codeac\res\drawable-mdpi\symbols.png"
   inkscape:export-xdpi="90"
   inkscape:export-ydpi="90"
   sodipodi:docname="symbols.svg">
  <defs
     id="defs4">
    <clipPath
       clipPathUnits="userSpaceOnUse"
       id="clipPath3019">
      <rect
         style="fill:#0000ff;fill-rule:evenodd;stroke:#000000;stroke-width:1px;stroke-linecap:butt;stroke-linejoin:miter;stroke-opacity:1"
         id="rect3021"
         width="97.984795"
         height="162.63457"
         x="-177.78685"
         y="786.69208" />
    </clipPath>
    <filter
       inkscape:collect="always"
       id="filter3899"
       color-interpolation-filters="sRGB">
      <feGaussianBlur
         inkscape:collect="always"
         stdDeviation="0.92471925"
         id="feGaussianBlur3901" />
    </filter>
    <filter
       inkscape:collect="always"
       id="filter3925"
       color-interpolation-filters="sRGB">
      <feGaussianBlur
         inkscape:collect="always"
         stdDeviation="0.57403386"
         id="feGaussianBlur3927" />
    </filter>
    <filter
       inkscape:collect="always"
       id="filter3845">
      <feGaussianBlur
         inkscape:collect="always"
         stdDeviation="0.29265464"
         id="feGaussianBlur3847" />
    </filter>
    <filter
       inkscape:collect="always"
       id="filter3857">
      <feGaussianBlur
         inkscape:collect="always"
         stdDeviation="0.27609247"
         id="feGaussianBlur3859" />
    </filter>
  </defs>
  <sodipodi:namedview
     id="base"
     pagecolor="#ffffff"
     bordercolor="#666666"
     borderopacity="1.0"
     inkscape:pageopacity="0.0"
     inkscape:pageshadow="2"
     inkscape:zoom="1.4142136"
     inkscape:cx="295.3061"
     inkscape:cy="49.176355"
     inkscape:document-units="px"
     inkscape:current-layer="layer1"
     showgrid="false"
     inkscape:window-width="1366"
     inkscape:window-height="705"
     inkscape:window-x="-8"
     inkscape:window-y="-8"
     inkscape:window-maximized="1" />
  <metadata
     id="metadata7">
    <rdf:RDF>
      <cc:Work
         rdf:about="">
        <dc:format>image/svg+xml</dc:format>
        <dc:type
           rdf:resource="http://purl.org/dc/dcmitype/StillImage" />
        <dc:title></dc:title>
      </cc:Work>
    </rdf:RDF>
  </metadata>
  <g
     inkscape:label="Layer 1"
     inkscape:groupmode="layer"
     id="layer1"
     transform="translate(0,-924.36218)">
    <path
       style="fill:#000000;"
       d="M 65.131272,1050.451 C 35.587085,1036.9024 61.356605,992.98645 51.412901,966.25599 51.133615,940.453 10.090089,935.09544 23.853422,965.34808 42.283927,998.33857 -3.2129933,987.71164 3.4052497,959.87932 3.7240277,917.38086 40.078963,923.70127 61.727214,938.0766 c 20.440663,-4.33693 47.828106,-27.43228 60.550006,8.58445 15.56307,24.49713 -27.580883,62.91895 -24.192641,22.26844 26.338511,-25.97895 -21.225787,-33.65528 -21.615988,-4.07943 -6.69075,26.03253 10.008364,70.04694 -11.337319,85.60094 z"
       id="path3076"
       inkscape:connector-curvature="0" />
    <path
       style="fill:#ffffff;fill-opacity:1;"
       d="m 98.1875,929.75 c -13.493635,0.90578 -25.143615,9.18635 -38.3125,11.5 -12.459634,-8.10481 -29.79097,-15.77809 -44.09375,-7.4375 -9.6386472,7.32314 -9.3372655,20.91251 -10.09375,31.8125 0.4208063,7.88782 8.611882,17.07306 16.71875,14.3125 2.921044,-6.08306 -3.317498,-11.97934 -4.78125,-17.71875 -3.628462,-7.80942 -1.619588,-19.9908 8.03125,-21.90625 14.309159,-3.47077 28.206674,9.66114 28.88204,23.74517 5.59468,19.18691 -0.929688,38.67523 -1.22579,58.00483 0.14093,8.0803 2.060758,19.1302 10.46875,22.25 10.547172,-11.7343 7.229866,-29.1539 6.817232,-43.6425 -0.897088,-16.50958 -2.545351,-34.23213 4.182768,-49.70125 6.305469,-10.86601 24.471991,-14.56826 32.4375,-3.53125 4.45886,7.66798 -0.62419,16.64659 -6.25,22.09375 0.13012,3.80777 -1.206682,10.88358 3.6875,12 9.82641,-2.73782 15.02004,-13.69865 16,-23.21875 -0.69326,-8.71463 -4.78716,-17.16693 -10.1875,-23.71875 -3.18655,-3.28677 -7.66959,-5.37476 -12.28125,-4.84375 z"
       id="path3887"
       inkscape:connector-curvature="0" />
    <g
       id="g3861"
       transform="matrix(1.0039239,0,0,1.0050004,-5.017569,-5.4743983)">
      <path
         inkscape:connector-curvature="0"
         id="path2993"
         d="m 160.74317,925.96612 c -12.94748,0.70012 -20.06004,15.07434 -18.31844,26.80748 1.33508,22.00438 13.44575,42.68151 30.14353,56.6233 0.97734,1.4206 -3.03691,2.7726 -3.54455,4.4979 -7.35283,7.9936 -10.07215,21.187 -2.68075,29.9945 2.78369,4.0186 7.98712,10.3257 13.31438,7.089 5.82917,-5.8391 -3.89169,-13.8275 0.98294,-20.1651 3.00172,-4.2735 6.73275,-9.0069 11.85487,-10.5443 7.34442,1.474 15.27374,-0.3438 20.22476,-6.255 10.93309,-1.8215 22.34869,2.8364 28.74358,11.8548 5.16361,3.698 10.84666,-3.5545 8.19118,-8.4593 -2.24907,-13.8227 -16.43933,-22.00527 -29.54307,-22.46413 -3.67354,0.23956 -1.67387,-4.99425 -2.83441,-7.50065 -3.92469,-23.33016 -18.63158,-44.79685 -38.87088,-56.9954 -5.35523,-2.97307 -11.45353,-4.88671 -17.66314,-4.4831 z m 1.37016,14.47604 c 14.92243,1.44259 24.54631,15.20454 32.39132,26.55251 6.41373,10.80811 11.28845,24.14932 7.81991,36.62383 -3.59642,4.8122 -9.91315,2.1789 -13.76117,-0.6851 -18.95599,-11.06861 -30.97714,-32.44259 -31.90091,-54.2107 0.27569,-3.16522 1.50958,-8.0519 5.45085,-8.28054 z"
         style="fill:#000000;fill-opacity:1;" />
      <path
         sodipodi:nodetypes="cccccccccccccccccccc"
         inkscape:connector-curvature="0"
         id="path3051"
         d="m 161.71875,929.9375 c -12.63774,0.57023 -18.08429,16.00027 -14.875,26.6875 2.11977,20.6877 15.34101,38.23489 29.78125,52.0312 -0.16239,6.8124 -8.74673,9.4784 -9.75,16.25 -3.24979,9.8332 0.10518,19.5848 10.05638,22.7216 -4.66429,-7.7869 -3.85687,-17.3856 3.88112,-23.8466 4.53317,-6.2987 12.73939,-8.4966 20.125,-7.25 6.7913,-1.8286 11.73831,-9.199 19.53125,-6.875 10.75659,1.0308 17.8834,4.457 25.08671,12.0788 -0.65671,-9.5562 -3.74897,-15.5321 -12.77421,-19.4538 -5.07905,-3.03035 -11.43319,-3.07501 -16.6875,-4.7812 -4.36479,-5.12493 -1.62158,-12.88288 -5,-18.6875 -6.88944,-21.64421 -22.70138,-42.39472 -45.25,-48.625 -1.34397,-0.25235 -2.7468,-0.34009 -4.125,-0.25 z m 0.6875,6.59375 c 18.29549,2.03609 30.13704,19.03578 38.53125,33.90625 5.43238,11.07804 9.95066,25.70481 3.25,37.0625 -7.27732,6.183 -17.27802,0.3112 -23.28125,-4.9062 -18.03509,-13.56005 -30.62951,-36.87397 -27.03125,-59.7813 1.28824,-3.26027 4.55535,-6.73491 8.53125,-6.28125 z"
         style="fill:#ffffff;fill-opacity:1;" />
    </g>
    <g
       id="g3943">
      <path
         id="path3877"
         d="m 383.6469,27.40411 c -6.37478,6.703505 5.09501,44.403543 -4.00251,46.079795 -9.09752,1.676252 -11.81754,-37.635964 -20.16286,-41.627236 -8.34533,-3.991272 -40.65584,18.567093 -45.06134,10.432827 -4.4055,-8.134266 32.14211,-22.869297 33.35919,-32.039544 1.21708,-9.1702464 -30.2217,-32.928448 -23.84693,-39.631952 6.37478,-6.703505 31.68246,23.5019602 40.77998,21.8257078 9.09752,-1.6762524 21.97779,-38.9179928 30.32312,-34.9267208 8.34532,3.991272 -12.56128,37.3943075 -8.15578,45.5285735 4.4055,8.1342655 43.80472,8.8758055 42.58765,18.0460525 -1.21708,9.170247 -39.44575,-0.391008 -45.82052,6.312497 z"
         inkscape:transform-center-y="-14.389832"
         inkscape:transform-center-x="-5.0161461"
         style="fill:#000000;fill-opacity:1;"
         transform="matrix(0.75987032,0.79075179,-0.75987033,0.79075178,50.353979,692.44702)" />
      <path
         inkscape:connector-curvature="0"
         id="path3879"
         d="m 318.78125,930.4375 c -5.17875,15.27995 0.37368,33.33005 -8.4375,47.4375 -7.7091,6.812 -18.35118,1.58468 -27.1875,0.9375 -6.81833,-1.23959 -15.1793,-4.51165 -21.375,-2.53125 12.34814,9.34194 29.87614,10.24717 40.4375,22.15625 4.63697,9.8706 -3.77406,19.1582 -7.15625,27.8125 -3.24815,6.3798 -8.90624,13.8004 -8.875,20.375 12.40474,-9.4932 18.17246,-26.368 32.84375,-33.0312 10.31995,-1.3087 15.88285,9.3792 22.51466,15.2102 4.96059,5.0059 10.29637,13.8154 16.23534,15.3835 -4.69735,-15.2901 -19.16314,-26.7767 -19.9375,-43.25 2.54503,-10.29631 14.51525,-12.64442 22.33556,-17.68987 6.10175,-2.98808 13.14373,-5.07689 17.82069,-10.27888 -11.55286,-0.69125 -22.11089,5.34348 -33.53125,6.625 -6.78577,2.19997 -16.07657,0.10424 -17.84375,-7.65625 -4.93093,-13.25132 -2.33561,-28.97832 -7.84375,-41.5 z"
         style="fill:#ffffff;fill-opacity:1;" />
    </g>
    <path
       style="font-size:medium;font-style:normal;font-variant:normal;font-weight:normal;font-stretch:normal;text-indent:0;text-align:start;text-decoration:none;line-height:normal;letter-spacing:normal;word-spacing:normal;text-transform:none;direction:ltr;block-progression:tb;writing-mode:lr-tb;text-anchor:start;baseline-shift:baseline;color:#000000;fill:#000000;fill-opacity:1;stroke:none;stroke-width:1px;marker:none;visibility:visible;display:inline;overflow:visible;enable-background:accumulate;font-family:Sans;-inkscape-font-specification:Sans"
       d="m 434.42131,925.40821 c -21.01772,1.07823 -32.64086,30.78846 -18.10139,46.122 6.03021,8.35563 13.04353,15.815 19.16289,24.14707 -16.85566,16.21132 -36.11766,29.81222 -51.48281,47.53242 10.58274,9.2888 28.84322,5.8668 35.56029,-6.4034 9.96958,-9.7273 20.60224,-19.0831 31.7333,-27.1937 17.35151,15.0743 33.26994,32.8039 54.77905,41.7496 8.24993,-9.287 2.68244,-25.976 -9.07863,-28.8862 -12.24354,-7.9048 -22.35741,-18.3215 -32.54339,-28.51952 13.53246,-12.65975 25.66906,-31.07676 21.42556,-50.57903 -5.06505,-14.29155 -21.96473,-19.10242 -35.69983,-17.81533 -5.2512,-0.0651 -10.50316,-0.249 -15.75504,-0.15391 z m 24.07932,18.92835 c 8.43035,0.5009 11.43376,13.4066 4.80469,18.19492 -3.82542,6.45296 -8.22323,13.09378 -14.91689,16.55879 -7.41129,-8.03646 -17.75998,-17.22036 -16.03426,-29.36575 4.37164,-7.42277 14.55376,-4.35163 21.56524,-5.02124 1.52721,-0.11898 3.04984,-0.31457 4.58122,-0.36672 z"
       id="path3949"
       inkscape:connector-curvature="0" />
    <path
       style="font-size:medium;font-style:normal;font-variant:normal;font-weight:normal;font-stretch:normal;text-indent:0;text-align:start;text-decoration:none;line-height:normal;letter-spacing:normal;word-spacing:normal;text-transform:none;direction:ltr;block-progression:tb;writing-mode:lr-tb;text-anchor:start;baseline-shift:baseline;color:#000000;fill:#ffffff;fill-opacity:1;stroke:none;stroke-width:1px;marker:none;visibility:visible;display:inline;overflow:visible;enable-background:accumulate;font-family:Sans;-inkscape-font-specification:Sans"
       d="m 451.96875,929.3125 c -10.20402,0.80095 -22.5789,-2.53422 -30.3125,6.09375 -9.52268,9.21086 -10.90003,26.81989 -0.375,36.09375 6.25451,8.27412 13.49584,16.08064 19.46875,24.625 -16.01515,16.1924 -35.47685,29.3394 -50.5625,46.4688 9.80171,4.9742 22.24735,-0.059 27.31217,-9.3519 10.59826,-10.347 21.92676,-20.0771 33.96908,-28.7107 17.31305,14.3099 32.57418,32.5865 53.3125,41.5938 3.75252,-7.979 -1.45506,-18.4281 -9.96875,-20.3125 -13.63972,-8.7378 -24.64594,-20.6801 -36.15625,-31.9375 13.90416,-12.17063 27.52069,-30.19809 23.125,-49.71875 -4.28158,-11.65964 -18.64829,-15.19087 -29.8125,-14.84375 z m 6.6875,11.03125 c 11.71563,0.3727 16.5445,17.8441 7.6875,24.9375 -4.53043,7.70595 -10.27847,15.21587 -18.8125,18.75 -9.13465,-9.59582 -21.60484,-20.89469 -19.03125,-35.6875 5.8488,-11.20896 20.21921,-6.42628 30.15625,-8 z"
       id="path4011"
       inkscape:connector-curvature="0" />
  </g>
  <g
     inkscape:groupmode="layer"
     id="layer2"
     inkscape:label="Layer" />
</svg>
